<svg xmlns="http://www.w3.org/2000/svg" viewBox="0 0 32 32">
  <style>
    path { fill: #C0722A; }
    @media (prefers-color-scheme: dark) { path { fill: #E0A96A; } }
  </style>
  <path d="m30.47 4.57 -1.52 0 0 -1.52 -1.53 0 0 -1.53 -3.04 0 0 -1.52L7.61 0l0 1.52 10.67 0 0 1.53 3.05 0 0 1.52 1.52 0 0 1.53 1.53 0 0 7.61 -1.53 0 0 1.53 -1.52 0 0 15.24 -16.76 0 0 1.52 21.33 0 0 -1.52 1.52 0 0 -1.53 1.53 0 0 -1.52 1.52 0 0 -13.72 1.53 0 0 -7.61 -1.53 0 0 -1.53z"/>
  <path d="M15.23 21.33h1.53v1.53h-1.53Z"/><path d="M13.71 18.29h1.52v1.52h-1.52Z"/><path d="M9.14 22.86h6.09v1.52H9.14Z"/><path d="M9.14 18.29h1.52v1.52H9.14Z"/><path d="M7.61 21.33h1.53v1.53H7.61Z"/><path d="M4.57 1.52h3.04v1.53H4.57Z"/><path d="M3.04 15.24h1.53v15.24H3.04Z"/><path d="M3.04 3.05h1.53v1.52H3.04Z"/><path d="M1.52 13.71h1.52v1.53H1.52Z"/><path d="M1.52 4.57h1.52V6.1H1.52Z"/><path d="M0 6.1h1.52v7.61H0Z"/>
</svg>
